<?xml version="1.0" standalone="no"?>
<!DOCTYPE svg PUBLIC "-//W3C//DTD SVG 20010904//EN"
 "http://www.w3.org/TR/2001/REC-SVG-20010904/DTD/svg10.dtd">
<svg version="1.0" xmlns="http://www.w3.org/2000/svg"
 width="700.000000pt" height="700.000000pt" viewBox="0 0 700.000000 700.000000"
 preserveAspectRatio="xMidYMid meet">
<metadata>
Created by potrace 1.14, written by Peter Selinger 2001-2017
</metadata>
<g transform="translate(0.000000,700.000000) scale(0.100000,-0.100000)"
fill="#000000" stroke="none">
<path d="M3278 6995 c-1 -1 -43 -6 -91 -10 -48 -3 -96 -8 -105 -10 -9 -1 -42
-6 -72 -10 -30 -4 -100 -16 -155 -27 -55 -11 -111 -22 -125 -24 -41 -8 -240
-64 -320 -91 -741 -251 -1371 -735 -1801 -1383 -277 -418 -456 -877 -533
-1365 -21 -128 -25 -168 -34 -275 -9 -123 -8 -498 2 -620 51 -635 299 -1284
685 -1790 162 -212 418 -480 576 -601 17 -13 32 -26 35 -29 32 -34 359 -260
376 -260 4 0 15 -6 23 -14 26 -23 250 -139 357 -185 55 -24 114 -49 132 -57
69 -32 315 -110 432 -139 105 -26 185 -44 230 -50 25 -4 54 -9 65 -11 11 -2
36 -6 55 -9 19 -3 51 -7 70 -10 202 -28 640 -27 854 2 34 4 220 37 341 59 108
21 397 115 555 182 484 204 904 504 1255 896 90 101 84 94 125 146 19 25 38
50 43 55 149 182 356 546 465 815 65 162 152 440 168 540 2 14 9 45 14 70 5
25 12 61 15 80 3 19 10 60 15 90 26 160 34 277 34 530 1 280 -5 363 -49 645
-33 210 -130 534 -228 760 -59 137 -194 396 -209 403 -5 2 -8 8 -8 14 0 13
-124 199 -203 303 -498 660 -1220 1125 -2022 1304 -114 25 -164 33 -415 67
-47 6 -546 15 -552 9z m312 -1671 c4 -5 18 -34 30 -64 12 -30 31 -74 41 -97
11 -24 19 -45 19 -48 0 -4 8 -25 19 -48 10 -23 39 -91 64 -152 77 -184 366
-883 412 -995 24 -58 100 -242 170 -410 69 -168 166 -402 215 -520 77 -186
256 -619 447 -1080 31 -74 66 -158 78 -187 21 -46 21 -52 7 -55 -14 -3 -3127
-2 -3185 1 -17 1 -17 3 -3 29 8 15 46 99 85 187 78 180 248 568 464 1060 79
182 199 454 265 606 67 152 132 300 145 330 14 30 120 272 237 539 117 267
222 508 235 535 12 28 53 120 90 205 37 85 71 160 76 166 10 12 76 11 89 -2z"/>
<path d="M3342 4383 c-33 -76 -135 -309 -227 -518 -92 -209 -178 -404 -191
-433 -13 -29 -35 -78 -48 -110 -13 -31 -40 -92 -60 -135 -20 -42 -36 -79 -36
-82 0 -2 -11 -28 -24 -57 -14 -29 -109 -244 -211 -478 -103 -234 -192 -438
-200 -455 -55 -124 -95 -216 -95 -220 0 -3 500 -5 1110 -5 611 0 1110 4 1110
8 0 5 -26 73 -59 153 -32 79 -131 324 -220 544 -90 220 -169 414 -176 430 -7
17 -110 271 -229 565 -120 294 -221 544 -226 555 -5 11 -41 99 -81 195 -39 96
-72 176 -73 178 -2 1 -30 -59 -64 -135z"/>
</g>
</svg>
